<svg width="64" height="26" viewBox="0 0 64 26" fill="none" xmlns="http://www.w3.org/2000/svg">
<path d="M48.8041 0.388733C45.8967 0.388544 43.0553 1.13537 40.6382 2.53479C38.221 3.93421 36.337 5.92336 35.2244 8.2507C34.1118 10.578 33.8205 13.139 34.3875 15.6097C34.9545 18.0805 36.3542 20.3501 38.4097 22.1315C40.4651 23.9128 43.084 25.126 45.9356 25.6175C48.7858 26.109 51.7414 25.8569 54.4276 24.893C57.1128 23.9289 59.4083 22.2964 61.023 20.2018C62.6389 18.1072 63.5007 15.6447 63.5007 13.1255C63.4961 9.74892 61.9467 6.5117 59.1917 4.12397C56.4366 1.73623 52.7006 0.392944 48.8041 0.388733ZM48.8041 20.9593C47.0163 20.9595 45.2687 20.5002 43.7816 19.6395C42.2948 18.7789 41.136 17.5555 40.4516 16.1241C39.7672 14.6927 39.5881 13.1175 39.9367 11.5978C40.2854 10.0782 41.1463 8.68231 42.4105 7.58659C43.6747 6.49092 45.2858 5.74473 47.0393 5.44238C48.7927 5.14003 50.6103 5.29511 52.2617 5.888C53.9142 6.48089 55.3261 7.48496 56.3197 8.77328C57.3122 10.0616 57.8428 11.5762 57.8428 13.1255C57.8394 15.2021 56.8859 17.1926 55.1909 18.661C53.4971 20.1294 51.2005 20.9559 48.8041 20.9593ZM15.157 0.388733C12.25 0.388733 9.40829 1.13574 6.99133 2.53528C4.57426 3.93482 2.69043 5.92404 1.57799 8.25139C0.465549 10.5788 0.174575 13.1396 0.741626 15.6103C1.30879 18.081 2.70854 20.3505 4.76404 22.1318C6.81954 23.9131 9.43844 25.1261 12.2895 25.6176C15.1406 26.109 18.0958 25.8569 20.7815 24.8929C23.4672 23.9288 25.7626 22.2963 27.3777 20.2017C28.9926 18.1071 29.8547 15.6446 29.8547 13.1255C29.8501 9.74872 28.3001 6.51138 25.5447 4.12362C22.7893 1.73586 19.0537 0.392676 15.157 0.388733ZM15.157 20.9593C13.4911 20.96 11.8576 20.5619 10.4364 19.8088C9.01532 19.0557 7.86185 17.977 7.10353 16.6917C6.34532 15.4064 6.01149 13.9645 6.13916 12.5253C6.26682 11.086 6.85083 9.70522 7.8269 8.53542C8.80296 7.36568 10.133 6.45236 11.6702 5.89631C13.2075 5.34025 14.8921 5.16309 16.5381 5.38438C18.1843 5.60568 19.7277 6.21681 20.9983 7.15033C22.2689 8.08385 23.2172 9.3035 23.7384 10.6745H15.157V15.5766H23.7384C23.1414 17.141 21.9913 18.503 20.4509 19.4691C18.9106 20.4353 17.0584 20.9566 15.157 20.9593Z" fill="#FF70D9"/>
</svg>
