<svg width="26" height="26" fill="none" xmlns="http://www.w3.org/2000/svg"><path d="M22.655 20.128c-.453-.606-1.122-1.071-2.094-.92-2.246.351-1.053-1.403-2.667-.701-1.291.561-2.223 2.152-2.527 2.877-.093-.444-.449-1.418-1.123-1.755-.842-.42-1.123.281-1.614-.42-.491-.702-.491-1.685-.912-2.668-.421-.982 1.403-2.456 2.526-1.895 1.123.562 1.825.211 2.387 1.053.561.842 1.263 1.895 1.263-1.053 0-2.947 1.404-4.28 2.035-4.21.632.07 2.597-.633 2.246-1.334-.35-.702-2.246-1.053-2.246-1.685 0-.631.843-1.965 0-2.596-.842-.632-2.947-1.895-4.562-1.755-1.614.14-2.111.772-2.111 1.334 0 .561 2.111 1.614.988 2.316-1.123.701-4.772 1.824-4.772.701 0-1.122-.21-3.509.491-3.509.702 0 .912-1.754 1.334-1.684.42.07 2.175-.701 2.947-.35.237.107 1.015-.096 1.89-.46m6.52 18.714A11.946 11.946 0 0 0 25 13c0-5.543-3.758-10.208-8.866-11.587m6.52 18.715A11.983 11.983 0 0 1 13 25c-.705 0-1.395-.06-2.067-.177m0 0c.091-.522.21-.954.364-1.193.631-.982 2.737-.28 2.947-.772.21-.491-.702-1.053-1.614-1.474-.912-.42-2.457-.842-2.667-2.877-.21-2.036-1.193-1.685-1.404-1.966-.21-.28-2.667-1.052-3.439-2.456-.772-1.404 0-3.79 0-4.422 0-.446-1.936-.926-3.242-1.176m9.055 16.336C5.291 23.843 1 18.923 1 13c0-1.596.312-3.12.878-4.513m0 0C3.66 4.096 7.969 1 13 1c1.084 0 2.135.144 3.134.413" stroke="#FF70D9" stroke-width="1.5" stroke-linecap="square" stroke-linejoin="round"/></svg>